<?xml version="1.0" standalone="no"?><!DOCTYPE svg PUBLIC "-//W3C//DTD SVG 1.1//EN" "http://www.w3.org/Graphics/SVG/1.1/DTD/svg11.dtd"><svg t="1718153654571" class="icon" viewBox="0 0 1024 1024" version="1.1" xmlns="http://www.w3.org/2000/svg" p-id="4306" xmlns:xlink="http://www.w3.org/1999/xlink" width="200" height="200"><path d="M949.619454 928.712797c0 18.161638-14.735609 32.897248-32.898271 32.897248L105.230158 961.610044c-18.173918 0-32.898271-14.735609-32.898271-32.897248l0 0c0-18.163685 14.725376-32.899294 32.898271-32.899294l811.491025 0C934.883845 895.812479 949.619454 910.549112 949.619454 928.712797L949.619454 928.712797z" fill="#7D7D7D" p-id="4307"></path><path d="M479.726457 699.066513 479.726457 95.373161c0-18.205641 14.606673-32.984229 32.898271-32.984229 18.184151 0 32.898271 14.863523 32.898271 32.984229l0 600.395236L735.56631 505.702574c12.872169-12.851703 33.648354-12.979616 46.583968-0.044002 12.851703 12.851703 13.001105 33.541931-0.063445 46.564525L549.571199 784.737708c-2.37714 2.39863-5.054109 4.369517-7.881504 5.869684-5.504364 10.409071-16.405645 17.476023-29.063943 17.476023-11.715833 0-22.038946-6.211469-27.864628-15.507182-4.498454-1.585101-8.760524-4.197602-12.390191-7.838525L239.864508 552.22412c-13.05534-13.023618-12.904914-33.713846-0.064468-46.564525 12.93766-12.935614 33.70259-12.8077 46.583968 0.044002L479.726457 699.066513z" fill="#7D7D7D" p-id="4308"></path></svg>